<svg xmlns="http://www.w3.org/2000/svg" viewBox="0 0 512 512">
<defs><linearGradient id="sky" x1="0" y1="0" x2="1" y2="1"><stop stop-color="#159bf0"/><stop offset="1" stop-color="#65d8ef"/></linearGradient><linearGradient id="plane" x1="0" y1="0" x2="0" y2="1"><stop stop-color="#fff"/><stop offset="1" stop-color="#dbe9f5"/></linearGradient></defs>
<rect width="512" height="512" rx="112" fill="url(#sky)"/>
<g fill="#fff" opacity=".92"><path d="M24 142c0-31 25-56 56-56 17 0 32 7 42 20 9-25 32-42 60-42 35 0 63 28 63 63 0 4 0 8-1 12H24v3Z"/><path d="M313 388c0-25 20-45 45-45 13 0 25 5 33 16 8-20 26-33 49-33 28 0 51 23 51 51 0 4 0 7-1 11H313Z"/></g>
<g transform="translate(38 164) rotate(-4 220 100)"><path fill="url(#plane)" d="M31 128 214 44l126-37c27-8 63 8 75 31l9 17-104 38 86 49c11 6 8 22-5 25l-103-19-82 36c-10 4-21 1-27-7l-18-25-101 28c-18 5-31-18-15-29Z"/><path fill="#1479dc" d="m30 128 181-82 25 17-94 57-100 28c-18 5-27-13-12-20Z"/><path fill="#1479dc" d="m238 73 113-37 33 12-102 45Z"/><path fill="#1479dc" d="m260 115 112 52-41 7-92-36Z"/><ellipse cx="329" cy="63" rx="50" ry="29" fill="#a9ddf4"/><circle cx="309" cy="61" r="8" fill="#183d70"/><circle cx="344" cy="56" r="8" fill="#183d70"/><path d="M316 76c11 12 25 12 36 0" fill="none" stroke="#183d70" stroke-width="5" stroke-linecap="round"/></g>
</svg>